<svg width="24" height="24" viewBox="0 0 24 24" fill="none" xmlns="http://www.w3.org/2000/svg">
<path d="M19.5141 12C19.5141 11.0156 20.1281 10.1766 21 9.83906C20.7703 8.87812 20.3906 7.97813 19.8891 7.1625C19.5891 7.29375 19.2703 7.36406 18.9469 7.36406C18.3563 7.36406 17.7656 7.13906 17.3109 6.68906C16.6125 5.99062 16.4578 4.96406 16.8328 4.11094C16.0219 3.60937 15.1172 3.22969 14.1609 3C13.8281 3.86719 12.9844 4.48594 12 4.48594C11.0156 4.48594 10.1719 3.86719 9.83906 3C8.87812 3.22969 7.97813 3.60937 7.1625 4.11094C7.54219 4.95937 7.38281 5.99062 6.68438 6.68906C6.23438 7.13906 5.63906 7.36406 5.04844 7.36406C4.725 7.36406 4.40625 7.29844 4.10625 7.1625C3.60937 7.98281 3.22969 8.88281 3 9.84375C3.86719 10.1766 4.48594 11.0156 4.48594 12.0047C4.48594 12.9891 3.87187 13.8281 3.00469 14.1656C3.23437 15.1266 3.61406 16.0266 4.11563 16.8422C4.41563 16.7109 4.73438 16.6453 5.05313 16.6453C5.64375 16.6453 6.23437 16.8703 6.68906 17.3203C7.38281 18.0141 7.54219 19.0453 7.16719 19.8937C7.98281 20.3953 8.8875 20.775 9.84375 21.0047C10.1766 20.1375 11.0156 19.5234 12 19.5234C12.9844 19.5234 13.8234 20.1375 14.1562 21.0047C15.1172 20.775 16.0172 20.3953 16.8328 19.8937C16.4578 19.0453 16.6172 18.0188 17.3109 17.3203C17.7609 16.8703 18.3516 16.6453 18.9469 16.6453C19.2656 16.6453 19.5891 16.7109 19.8844 16.8422C20.3859 16.0266 20.7656 15.1219 20.9953 14.1656C20.1328 13.8281 19.5141 12.9891 19.5141 12ZM12.0422 15.7453C9.96562 15.7453 8.29219 14.0625 8.29219 11.9953C8.29219 9.92812 9.96562 8.24531 12.0422 8.24531C14.1187 8.24531 15.7922 9.92812 15.7922 11.9953C15.7922 14.0625 14.1187 15.7453 12.0422 15.7453Z" fill="#3C3C3C"/>
</svg>
