<svg width="24" height="24" viewBox="0 0 24 24" fill="none" xmlns="http://www.w3.org/2000/svg">
<path d="M14.625 17.4375C14.2641 17.4375 13.9688 17.7328 13.9688 18.0938C13.9688 18.5578 13.5891 18.9375 13.125 18.9375H4.40625C3.94219 18.9375 3.5625 18.5578 3.5625 18.0938V5.90625C3.5625 5.44219 3.94219 5.0625 4.40625 5.0625H13.125C13.5891 5.0625 13.9688 5.44219 13.9688 5.90625C13.9688 6.26719 14.2641 6.5625 14.625 6.5625C14.9859 6.5625 15.2812 6.26719 15.2812 5.90625C15.2812 4.71563 14.3156 3.75 13.125 3.75H4.40625C3.21563 3.75 2.25 4.71563 2.25 5.90625V18.0938C2.25 19.2844 3.21563 20.25 4.40625 20.25H13.125C14.3156 20.25 15.2812 19.2844 15.2812 18.0938C15.2812 17.7328 14.9859 17.4375 14.625 17.4375Z" fill="#3C3C3C"/>
<path d="M17.4797 7.41094C17.3578 7.28906 17.1938 7.21875 17.0156 7.21875C16.8422 7.21875 16.6734 7.28438 16.5516 7.41094C16.2938 7.66875 16.2938 8.08125 16.5516 8.33906L19.6078 11.3484H7.59375C7.23281 11.3484 6.9375 11.6438 6.9375 12.0047C6.9375 12.3656 7.23281 12.6609 7.59375 12.6609H19.6219L16.6406 15.6656C16.3875 15.9188 16.3875 16.3359 16.6406 16.5938L16.6453 16.5984C16.7719 16.7156 16.9359 16.7812 17.1047 16.7812C17.2828 16.7812 17.4469 16.7156 17.5687 16.5891L21.4406 12.7266C21.6422 12.525 21.7453 12.2906 21.7453 12.0375C21.7453 11.7891 21.6375 11.5547 21.4406 11.3578L17.4797 7.41094Z" fill="#3C3C3C"/>
</svg>
