<svg width="22" height="14" viewBox="0 0 22 14" fill="none" xmlns="http://www.w3.org/2000/svg">
<path d="M15.3641 10.689C14.8391 10.5015 13.9812 10.4922 13.6016 10.3468C13.3391 10.2437 12.9219 10.1312 12.7859 9.96715C12.65 9.80309 12.65 8.63121 12.65 8.63121C12.65 8.63121 12.9781 8.32184 13.1141 7.97496C13.25 7.63278 13.3391 6.6859 13.3391 6.6859C13.3391 6.6859 13.6484 6.81715 13.7703 6.1984C13.8734 5.66403 14.0703 5.38278 14.0187 4.98903C13.9625 4.59528 13.7469 4.68903 13.7469 4.68903C13.7469 4.68903 14.0187 4.29059 14.0187 2.9359C14.0187 1.53903 12.9641 0.165588 10.9906 0.165588C9.02188 0.165588 7.95781 1.54371 7.95781 2.9359C7.95781 4.29059 8.225 4.68903 8.225 4.68903C8.225 4.68903 8.00469 4.59528 7.95312 4.98903C7.89687 5.38278 8.09375 5.66403 8.20156 6.1984C8.32344 6.82184 8.63281 6.6859 8.63281 6.6859C8.63281 6.6859 8.72188 7.62809 8.85781 7.97496C8.99375 8.32184 9.32187 8.63121 9.32187 8.63121C9.32187 8.63121 9.32188 9.80309 9.18594 9.96715C9.05 10.1312 8.63281 10.2437 8.37031 10.3422C7.99531 10.4875 7.1375 10.5062 6.60781 10.6937C6.08281 10.8812 4.46094 11.7343 4.46094 13.8437H10.9906H17.5062C17.5109 11.7297 15.8891 10.8765 15.3641 10.689Z" fill="#3C3C3C"/>
<path d="M5.5625 8.40618C5.5625 8.40618 6.68281 8.36868 7.12812 7.97024C6.40156 6.86868 6.79531 5.5843 6.64531 4.3843C6.49531 3.18899 5.81562 2.4718 4.45625 2.4718C4.45156 2.4718 4.48437 2.4718 4.4375 2.4718C3.125 2.4718 2.41719 3.1843 2.26719 4.3843C2.11719 5.57961 2.53437 7.0093 1.78906 7.97024C2.23437 8.37337 3.35937 8.3593 3.35937 8.3593C3.35937 8.3593 3.40625 9.0343 3.3125 9.1468C3.21875 9.2593 2.94219 9.36712 2.75 9.40461C2.3375 9.49368 1.90156 9.61555 1.53594 9.74212C1.17031 9.86868 0.476562 10.5484 0.476562 11.4859H4.24062C4.34375 11.1109 5.05156 10.4406 5.74062 10.089C6.1625 9.87337 6.57969 9.88743 6.89844 9.84524C6.89844 9.84524 7.07656 9.56399 6.49062 9.45618C6.49062 9.45618 5.68437 9.25462 5.59062 9.14212C5.50156 9.03899 5.5625 8.40618 5.5625 8.40618Z" fill="#3C3C3C"/>
<path d="M16.4375 8.40618C16.4375 8.40618 15.3172 8.36868 14.8719 7.97024C15.5984 6.86868 15.2047 5.5843 15.3547 4.3843C15.5047 3.18899 16.1844 2.4718 17.5438 2.4718C17.5484 2.4718 17.5156 2.4718 17.5625 2.4718C18.875 2.4718 19.5828 3.1843 19.7328 4.3843C19.8828 5.57961 19.4656 7.0093 20.2109 7.97024C19.7656 8.37337 18.6406 8.3593 18.6406 8.3593C18.6406 8.3593 18.5938 9.0343 18.6875 9.1468C18.7813 9.2593 19.0578 9.36712 19.25 9.40461C19.6625 9.49368 20.0984 9.61555 20.4641 9.74212C20.8297 9.86868 21.5234 10.5484 21.5234 11.4859H17.7594C17.6563 11.1109 16.9484 10.4406 16.2594 10.089C15.8375 9.87337 15.4203 9.88743 15.1016 9.84524C15.1016 9.84524 14.9234 9.56399 15.5094 9.45618C15.5094 9.45618 16.3156 9.25462 16.4094 9.14212C16.4984 9.03899 16.4375 8.40618 16.4375 8.40618Z" fill="#3C3C3C"/>
</svg>
