<svg width="20" height="16" viewBox="0 0 20 16" fill="none" xmlns="http://www.w3.org/2000/svg">
<path d="M17.5 5.375C18.7426 5.375 19.75 4.36764 19.75 3.125C19.75 1.88236 18.7426 0.875 17.5 0.875C16.2574 0.875 15.25 1.88236 15.25 3.125C15.25 4.36764 16.2574 5.375 17.5 5.375Z" fill="#3C3C3C"/>
<path d="M17.5 6.24219C17.2469 6.24219 17.0031 6.20938 16.7687 6.15313L14.5469 8.41719C14.5094 8.45469 14.5094 8.51094 14.5469 8.54844L18.0766 12.3078C18.3156 12.5469 18.3156 12.9313 18.0766 13.1703C17.9594 13.2875 17.8 13.3484 17.6453 13.3484C17.4906 13.3484 17.3312 13.2875 17.2141 13.1703L13.6984 9.425C13.6609 9.3875 13.6 9.3875 13.5625 9.425L12.7047 10.2969C11.9875 11.0234 11.0359 11.4266 10.0141 11.4313C8.97812 11.4359 7.99375 11 7.26719 10.2641L6.44219 9.425C6.40469 9.3875 6.34375 9.3875 6.30625 9.425L2.79062 13.1703C2.67344 13.2875 2.51406 13.3484 2.35938 13.3484C2.20469 13.3484 2.04531 13.2875 1.92813 13.1703C1.68906 12.9313 1.68906 12.5469 1.92813 12.3078L5.45781 8.54844C5.49063 8.51094 5.49063 8.45469 5.45781 8.41719L0.409375 3.27968C0.348438 3.21875 0.25 3.26093 0.25 3.34531V13.625C0.25 14.45 0.925 15.125 1.75 15.125H18.25C19.075 15.125 19.75 14.45 19.75 13.625V5.28125C19.1828 5.87187 18.3859 6.24219 17.5 6.24219Z" fill="#3C3C3C"/>
<path d="M14.3828 3.125C14.3828 2.58125 14.5234 2.07031 14.7672 1.625H1.74531C1.39375 1.625 1.07031 1.74688 0.817187 1.95313L8.17187 9.43906C8.65937 9.93594 9.31093 10.2078 10.0047 10.2078C10.6984 10.2078 11.35 9.93594 11.8375 9.43906L15.6109 5.6C14.8609 5.02813 14.3828 4.13281 14.3828 3.125Z" fill="#3C3C3C"/>
</svg>
