<svg width="20" height="20" viewBox="0 0 20 20" fill="none" xmlns="http://www.w3.org/2000/svg">
<path d="M19.6469 0.512482C19.6281 0.432795 19.5719 0.371858 19.4922 0.353108C16.9422 -0.27033 11.05 1.95154 7.85782 5.14373C7.23438 5.76717 6.72345 6.38123 6.30626 6.97654C5.32188 6.88748 4.33751 6.96248 3.49845 7.32811C1.13126 8.36873 0.442196 11.0875 0.250009 12.2547C0.203134 12.5312 0.432821 12.7703 0.709384 12.7422L4.51095 12.325C4.51563 12.6906 4.53907 12.9812 4.56251 13.1828C4.58126 13.3797 4.67032 13.5625 4.81095 13.7031L6.28282 15.175C6.42345 15.3156 6.60626 15.4047 6.80313 15.4234C7.0047 15.4469 7.29532 15.4703 7.65626 15.475L7.23907 19.2719C7.21095 19.5484 7.45001 19.7781 7.72657 19.7312C8.89376 19.5437 11.6172 18.8547 12.6531 16.4875C13.0188 15.6484 13.0938 14.6687 13.0094 13.689C13.6047 13.2719 14.2234 12.7609 14.8469 12.1375C18.0531 8.94998 20.2609 3.18904 19.6469 0.512482ZM11.9969 8.00779C11.2141 7.22498 11.2141 5.95936 11.9969 5.17654C12.7797 4.39373 14.0453 4.39373 14.8281 5.17654C15.6109 5.95936 15.6109 7.22498 14.8281 8.00779C14.0453 8.79061 12.7797 8.79061 11.9969 8.00779Z" fill="#3C3C3C"/>
<path d="M6.1797 15.8359C5.98282 16.0328 5.63126 16.1453 5.25157 16.2109C4.39845 16.3562 3.65314 15.6109 3.79845 14.7578C3.86408 14.3781 3.97189 14.0266 4.16876 13.8344L4.17345 13.8297C4.28126 13.7219 4.1922 13.5437 4.0422 13.5625C3.58283 13.6187 3.13283 13.825 2.78127 14.1766C1.93752 15.0203 1.85783 18.1515 1.85783 18.1515C1.85783 18.1515 4.99376 18.0719 5.83751 17.2281C6.19376 16.8719 6.39532 16.4265 6.45157 15.9672C6.46563 15.8172 6.28282 15.7281 6.1797 15.8359Z" fill="#4F4F4F"/>
</svg>
