<svg width="24" height="24" viewBox="0 0 24 24" fill="none" xmlns="http://www.w3.org/2000/svg">
<path d="M17.625 9.00002H16.5V6.81096C16.5 4.34065 14.5312 2.28752 12.0609 2.25002C9.55781 2.21721 7.5 4.25627 7.5 6.75002V9.00002H6.375C5.34375 9.00002 4.5 9.84377 4.5 10.875V19.875C4.5 20.9063 5.34375 21.75 6.375 21.75H17.625C18.6562 21.75 19.5 20.9063 19.5 19.875V10.875C19.5 9.84377 18.6562 9.00002 17.625 9.00002ZM12.6562 14.85V18.075C12.6562 18.4266 12.3844 18.7313 12.0328 18.75C11.6578 18.7688 11.3438 18.4688 11.3438 18.0938V14.85C10.8047 14.5875 10.4484 14.0156 10.5047 13.3641C10.5703 12.6375 11.1656 12.0563 11.8922 12.0047C12.7688 11.9438 13.5 12.6375 13.5 13.5C13.5 14.0953 13.1578 14.6063 12.6562 14.85ZM15.1875 9.00002H8.8125V6.75002C8.8125 5.90159 9.14531 5.10471 9.75 4.50002C10.3547 3.89534 11.1516 3.56252 12 3.56252C12.8484 3.56252 13.6453 3.89534 14.25 4.50002C14.8547 5.10471 15.1875 5.90159 15.1875 6.75002V9.00002Z" fill="#3C3C3C"/>
</svg>
